<svg id="SvgjsSvg1001" width="288" height="288" xmlns="http://www.w3.org/2000/svg" version="1.1" xmlns:xlink="http://www.w3.org/1999/xlink" xmlns:svgjs="http://svgjs.com/svgjs"><defs id="SvgjsDefs1002"></defs><g id="SvgjsG1008"><svg xmlns="http://www.w3.org/2000/svg" width="288" height="288" fill="none" viewBox="0 0 20 20"><path stroke="#fff" stroke-linecap="round" stroke-linejoin="round" stroke-width="2" d="M15 6.66666C15 5.34057 14.4732 4.0688 13.5355 3.13112 12.5979 2.19344 11.3261 1.66666 10 1.66666 8.67392 1.66666 7.40215 2.19344 6.46447 3.13112 5.52678 4.0688 5 5.34057 5 6.66666 5 12.5 2.5 14.1667 2.5 14.1667H17.5C17.5 14.1667 15 12.5 15 6.66666zM11.4417 17.5C11.2952 17.7526 11.0849 17.9622 10.8319 18.1079 10.5789 18.2537 10.292 18.3304 10 18.3304 9.70803 18.3304 9.42117 18.2537 9.16816 18.1079 8.91515 17.9622 8.70486 17.7526 8.55835 17.5" fill="#000000" class="color000 svgShape colorStrokefff svgStroke"></path></svg></g></svg>